<svg xmlns="http://www.w3.org/2000/svg">
	<symbol id="icon-chat" viewBox="0 0 512 512">
		<path d="M407.583,70c-45.1-45.1-105-70-168.8-70s-123.7,24.9-168.8,70c-87,87-93.3,226-15.8,320.2c-10.7,21.9-23.3,36.5-37.6,43.5
			c-8.7,4.3-13.6,13.7-12.2,23.3c1.5,9.7,8.9,17.2,18.6,18.7c5.3,0.8,11,1.3,16.9,1.3l0,0c29.3,0,60.1-10.1,85.8-27.8
			c34.6,18.6,73.5,28.4,113.1,28.4c63.8,0,123.7-24.8,168.8-69.9s69.9-105.1,69.9-168.8S452.683,115.1,407.583,70z M388.483,388.5
			c-40,40-93.2,62-149.7,62c-37.8,0-74.9-10.1-107.2-29.1c-2.1-1.2-4.5-1.9-6.8-1.9c-2.9,0-5.9,1-8.3,2.8
			c-30.6,23.7-61.4,27.2-74.9,27.5c16.1-12,29.6-30.6,40.9-56.5c2.1-4.8,1.2-10.4-2.3-14.4c-74-83.6-70.1-211,8.9-290
			c40-40,93.2-62,149.7-62s109.7,22,149.7,62C471.083,171.6,471.083,306,388.483,388.5z"></path>
		<path d="M338.783,160h-200c-7.5,0-13.5,6-13.5,13.5s6,13.5,13.5,13.5h200c7.5,0,13.5-6,13.5-13.5S346.183,160,338.783,160z"></path>
		<path d="M338.783,225.3h-200c-7.5,0-13.5,6-13.5,13.5s6,13.5,13.5,13.5h200c7.5,0,13.5-6,13.5-13.5S346.183,225.3,338.783,225.3z"
			></path>
		<path d="M338.783,290.6h-200c-7.5,0-13.5,6-13.5,13.5s6,13.5,13.5,13.5h200c7.5,0,13.5-6,13.5-13.5S346.183,290.6,338.783,290.6z"
			></path>
	</symbol>

	<symbol id="icon-settings" viewBox="0 0 512 512">
		<path d="M328.844,368.733c-5.383-3.235-10.908-6.487-16.433-9.675c1.299-11.07,1.302-22.268,0.006-33.316
			c5.546-3.2,11.068-6.45,16.425-9.671c9.02-5.42,12.78-16.856,8.744-26.603c0,0,0,0-0.001-0.001l-11.771-28.418
			c-4.037-9.744-14.777-15.175-24.993-12.63c-6.071,1.511-12.274,3.118-18.455,4.776c-6.901-8.732-14.82-16.649-23.563-23.554
			c1.658-6.182,3.266-12.388,4.778-18.461c2.545-10.211-2.885-20.955-12.629-24.992l-28.418-11.771
			c-9.744-4.038-21.183-0.281-26.605,8.741c-3.229,5.374-6.482,10.899-9.674,16.433c-11.067-1.299-22.263-1.302-33.316-0.007
			c-3.202-5.551-6.453-11.074-9.67-16.426c-5.424-9.02-16.86-12.778-26.605-8.741l-28.418,11.771
			c-9.742,4.036-15.174,14.781-12.629,24.992c1.515,6.085,3.121,12.289,4.776,18.455c-8.731,6.899-16.649,14.82-23.553,23.563
			c-6.196-1.663-12.402-3.269-18.463-4.779c-10.214-2.547-20.956,2.888-24.993,12.631L1.615,289.467
			c-4.035,9.745-0.276,21.182,8.742,26.602c5.375,3.23,10.9,6.482,16.433,9.675c-1.298,11.066-1.301,22.262-0.006,33.316
			c-5.538,3.195-11.06,6.446-16.429,9.672c-9.018,5.421-12.777,16.857-8.741,26.603l11.772,28.418
			c4.036,9.743,14.775,15.176,24.993,12.63c6.064-1.51,12.268-3.116,18.453-4.776c6.901,8.731,14.82,16.647,23.563,23.553
			c-1.66,6.189-3.267,12.395-4.778,18.461c-2.545,10.211,2.885,20.956,12.629,24.992l28.419,11.772
			c2.64,1.093,5.403,1.615,8.137,1.615c7.362,0,14.514-3.779,18.471-10.355c3.205-5.333,6.456-10.856,9.674-16.432
			c11.065,1.297,22.264,1.299,33.316,0.006c3.179,5.512,6.43,11.034,9.67,16.427c5.422,9.02,16.858,12.777,26.605,8.741
			l28.418-11.771c9.742-4.036,15.174-14.781,12.629-24.992c-1.503-6.033-3.109-12.237-4.776-18.455
			c8.729-6.899,16.648-14.819,23.554-23.562c6.178,1.657,12.384,3.263,18.46,4.777c10.211,2.547,20.956-2.884,24.993-12.63
			l11.771-28.419C341.621,385.59,337.862,374.153,328.844,368.733z M305.116,413.834c-5.837-1.462-11.787-3.008-17.703-4.602
			c-8.376-2.253-17.215,0.692-22.519,7.507c-6.096,7.83-13.151,14.886-20.968,20.973c-6.807,5.302-9.748,14.138-7.493,22.509
			c1.603,5.954,3.148,11.9,4.601,17.696l-26.122,10.819c-3.107-5.184-6.218-10.481-9.259-15.765
			c-4.327-7.514-12.655-11.678-21.216-10.618c-9.831,1.221-19.81,1.22-29.654-0.005c-8.585-1.066-16.906,3.098-21.232,10.614
			c-3.078,5.344-6.19,10.644-9.263,15.773l-26.122-10.82c1.461-5.827,3.007-11.776,4.603-17.701
			c2.255-8.375-0.692-17.215-7.507-22.52c-7.83-6.095-14.885-13.149-20.973-20.965c-5.3-6.809-14.136-9.749-22.51-7.495
			c-5.923,1.595-11.87,3.141-17.695,4.601l-10.82-26.121c5.16-3.094,10.459-6.205,15.765-9.26
			c7.515-4.327,11.683-12.653,10.619-21.215c-1.223-9.832-1.22-19.81,0.003-29.655c1.068-8.57-3.097-16.905-10.616-21.233
			c-5.304-3.054-10.604-6.166-15.772-9.265l10.82-26.121c5.82,1.459,11.768,3.005,17.702,4.602
			c8.372,2.256,17.212-0.692,22.52-7.507c6.095-7.83,13.15-14.886,20.965-20.972c6.808-5.301,9.749-14.138,7.494-22.512
			c-1.59-5.904-3.136-11.85-4.601-17.694l26.122-10.819c3.084,5.146,6.196,10.444,9.259,15.765
			c4.328,7.515,12.663,11.689,21.216,10.618c9.827-1.223,19.804-1.223,29.657,0.005c8.575,1.068,16.905-3.102,21.231-10.617
			c3.053-5.304,6.166-10.604,9.262-15.771l26.122,10.819c-1.462,5.833-3.008,11.782-4.603,17.703
			c-2.255,8.374,0.692,17.214,7.507,22.519c7.829,6.095,14.885,13.149,20.973,20.965c5.3,6.807,14.133,9.748,22.511,7.494
			c5.919-1.594,11.865-3.14,17.694-4.601l10.819,26.121c-5.153,3.089-10.451,6.2-15.765,9.26
			c-7.515,4.327-11.684,12.654-10.619,21.216c1.223,9.827,1.221,19.806-0.005,29.657c-1.066,8.571,3.101,16.904,10.617,21.231
			c5.296,3.049,10.596,6.161,15.772,9.263L305.116,413.834z"></path>
		<path d="M241.762,312.511c0,0,0,0-0.001-0.001c-16.48-39.789-62.256-58.752-102.051-42.271
			C99.922,286.721,80.958,332.501,97.44,372.29c7.983,19.276,22.997,34.287,42.271,42.272c9.637,3.991,19.763,5.987,29.889,5.987
			s20.252-1.996,29.891-5.987C239.279,398.08,258.242,352.301,241.762,312.511z M190.72,393.388c-13.618,5.641-28.617,5.64-42.239,0
			c-13.618-5.641-24.225-16.249-29.867-29.868c-11.647-28.114,1.753-60.462,29.868-72.107c6.885-2.852,14.021-4.202,21.047-4.202
			c21.667,0,42.265,12.84,51.06,34.07C232.234,349.395,218.834,381.742,190.72,393.388z"></path>
		<path d="M496.553,100.936c-3.956-0.592-8.019-1.167-12.111-1.713c-2.062-6.857-4.816-13.505-8.214-19.819
			c2.504-3.275,4.972-6.556,7.357-9.779c5.295-7.161,4.529-17.317-1.78-23.623l-15.808-15.806
			c-6.309-6.31-16.465-7.075-23.624-1.778c-3.234,2.393-6.514,4.86-9.779,7.355c-6.313-3.398-12.96-6.152-19.819-8.215
			c-0.547-4.092-1.12-8.155-1.712-12.11C409.746,6.642,402.024,0,393.102,0h-22.356c-8.922,0-16.644,6.642-17.961,15.447
			c-0.591,3.953-1.165,8.017-1.712,12.11c-6.859,2.063-13.507,4.817-19.819,8.215c-3.263-2.496-6.545-4.964-9.778-7.355
			c-7.161-5.297-17.317-4.532-23.624,1.777l-15.806,15.805c-6.31,6.308-7.077,16.465-1.78,23.627
			c2.383,3.222,4.851,6.504,7.354,9.778c-3.396,6.313-6.151,12.96-8.214,19.819c-4.091,0.547-8.155,1.121-12.11,1.713
			c-8.807,1.318-15.449,9.039-15.449,17.962v22.355c0,8.922,6.64,16.644,15.447,17.962c3.956,0.592,8.019,1.167,12.111,1.713
			c2.063,6.858,4.817,13.505,8.214,19.819c-2.501,3.272-4.969,6.552-7.357,9.779c-5.294,7.159-4.529,17.317,1.78,23.622
			l15.808,15.808c6.308,6.31,16.464,7.074,23.624,1.778c3.234-2.391,6.514-4.86,9.778-7.354c6.315,3.398,12.963,6.152,19.82,8.214
			c0.545,4.091,1.12,8.155,1.712,12.111c1.318,8.806,9.04,15.448,17.962,15.448h22.356c8.922,0,16.644-6.64,17.961-15.449
			c0.591-3.956,1.165-8.019,1.712-12.111c6.858-2.061,13.505-4.817,19.819-8.215c3.263,2.496,6.545,4.964,9.778,7.356
			c7.159,5.297,17.317,4.532,23.624-1.777l15.808-15.806c6.309-6.308,7.075-16.465,1.778-23.626
			c-2.386-3.226-4.854-6.508-7.354-9.777c3.396-6.313,6.151-12.959,8.214-19.819c4.091-0.547,8.155-1.121,12.11-1.713
			c8.807-1.318,15.449-9.039,15.449-17.962v-22.355C512,109.976,505.359,102.254,496.553,100.936z M490.228,138.142
			c-3.592,0.521-7.257,1.027-10.934,1.506c-7.273,0.949-13.227,6.111-15.165,13.149c-1.857,6.739-4.552,13.242-8.009,19.328
			c-3.611,6.353-3.054,14.215,1.419,20.032c2.255,2.932,4.492,5.883,6.669,8.799l-11.404,11.405
			c-2.925-2.183-5.876-4.419-8.802-6.669c-5.814-4.475-13.678-5.028-20.032-1.421c-6.087,3.458-12.59,6.153-19.325,8.01
			c-7.042,1.94-12.204,7.894-13.15,15.165c-0.479,3.677-0.984,7.343-1.506,10.935h-16.13c-0.521-3.592-1.026-7.257-1.506-10.931
			c-0.949-7.274-6.11-13.228-13.15-15.168c-6.737-1.856-13.238-4.551-19.327-8.009c-6.354-3.61-14.218-3.055-20.031,1.419
			c-2.927,2.251-5.876,4.486-8.803,6.669l-11.404-11.405c2.177-2.919,4.413-5.868,6.671-8.803c4.47-5.815,5.027-13.677,1.417-20.03
			c-3.457-6.086-6.152-12.59-8.009-19.327c-1.939-7.04-7.892-12.201-15.165-13.15c-3.677-0.48-7.343-0.984-10.935-1.507v-16.128
			c3.592-0.521,7.257-1.027,10.934-1.506c7.273-0.949,13.227-6.111,15.165-13.149c1.857-6.738,4.551-13.241,8.009-19.328
			c3.611-6.353,3.054-14.216-1.417-20.031c-2.259-2.936-4.495-5.886-6.67-8.8l11.404-11.405c2.925,2.183,5.875,4.419,8.8,6.668
			c5.812,4.475,13.675,5.033,20.034,1.422c6.085-3.457,12.589-6.152,19.325-8.01c7.042-1.94,12.204-7.894,13.15-15.165
			c0.48-3.677,0.986-7.342,1.507-10.934h16.13c0.521,3.591,1.026,7.256,1.505,10.931c0.949,7.274,6.111,13.228,13.15,15.167
			c6.738,1.857,13.242,4.553,19.328,8.01c6.355,3.611,14.218,3.05,20.03-1.42c2.927-2.25,5.876-4.486,8.803-6.669l11.404,11.405
			c-2.175,2.915-4.411,5.866-6.67,8.803c-4.471,5.814-5.027,13.676-1.419,20.029c3.457,6.088,6.152,12.592,8.009,19.328
			c1.939,7.04,7.892,12.201,15.165,13.15c3.677,0.48,7.343,0.985,10.935,1.507V138.142z"></path>
		<path d="M381.924,83.675c-25.585,0-46.401,20.815-46.401,46.401c0,25.587,20.815,46.402,46.401,46.402
			s46.401-20.815,46.401-46.402C428.325,104.49,407.51,83.675,381.924,83.675z M381.924,155.851
			c-14.211,0-25.775-11.563-25.775-25.776c0-14.213,11.563-25.775,25.775-25.775c14.212,0,25.774,11.563,25.775,25.775
			C407.699,144.288,396.136,155.851,381.924,155.851z"></path>
	</symbol>

	<symbol id="icon-tech" viewBox="0 0 512 512">
		<path d="M269.402,201.258c-36.341,0-65.908,29.567-65.908,65.908c0,36.343,29.567,65.909,65.908,65.909
			c36.344,0,65.911-29.567,65.911-65.909C335.312,230.825,305.746,201.258,269.402,201.258z M269.402,308.136
			c-22.591,0-40.969-18.379-40.969-40.97s18.379-40.969,40.969-40.969c22.591,0,40.971,18.379,40.971,40.969
			S291.994,308.136,269.402,308.136z"></path>
		<path d="M510.298,153.212c4.854-35.67-0.718-66.01-16.116-88.421c2.52-5.563,3.935-11.729,3.935-18.223
			c0-24.443-19.885-44.329-44.329-44.329c-16.518,0-30.946,9.089-38.571,22.521c-41.761-2.087-92.892,13.258-145.817,43.833
			C179.038,16.37,97.225,10.097,54.785,52.552C36.34,70.997,26.787,97.389,26.831,129.274C11.065,136.075,0,151.765,0,169.996
			c0,24.443,19.886,44.329,44.329,44.329c0.257,0,0.51-0.015,0.766-0.02c6.818,17.34,15.442,35.057,25.73,52.862
			C18.602,357.528,12.33,439.341,54.783,481.781c18.729,18.734,45.116,27.982,76.527,27.981
			c39.774-0.001,87.601-14.843,138.089-44.02c50.492,29.18,98.314,44.02,138.092,44.02c31.41,0,57.805-9.247,76.536-27.978
			c42.45-42.451,36.167-124.268-16.07-214.624C490.933,227.386,505.548,188.12,510.298,153.212z M453.788,27.178
			c10.691,0,19.39,8.699,19.39,19.39c0,10.691-8.699,19.39-19.39,19.39s-19.39-8.699-19.39-19.39S443.096,27.178,453.788,27.178z
			 M409.567,49.511c1.521,23.075,20.767,41.387,44.221,41.387c8.491,0,16.429-2.404,23.177-6.56
			c9.231,16.76,12.215,39.108,8.622,65.513c-3.856,28.343-15.083,60.193-32.658,93.024c-20.036-30.388-44.115-59.724-71.812-87.423
			c-27.696-27.696-57.041-51.781-87.445-71.834C336.244,60.79,376.448,48.95,409.567,49.511z M44.329,189.386
			c-10.691,0-19.39-8.698-19.39-19.39c0-10.691,8.699-19.39,19.39-19.39c10.691,0,19.39,8.699,19.39,19.39
			C63.72,180.687,55.021,189.386,44.329,189.386z M68.976,206.822c11.861-7.964,19.683-21.498,19.683-36.826
			c0-21.903-15.974-40.137-36.881-43.691c0.505-23.761,7.542-43.018,20.642-56.119c31.886-31.895,98.414-26.287,172.688,13.445
			c-30.398,20.05-59.734,44.131-87.424,71.821c-27.694,27.694-51.776,57.033-71.826,87.432
			C79.345,230.718,73.708,218.664,68.976,206.822z M72.417,464.147c-31.895-31.885-26.287-98.414,13.445-172.686
			c20.049,30.397,44.13,59.733,71.821,87.424c27.691,27.69,57.027,51.771,87.424,71.821
			C170.833,490.435,104.306,496.043,72.417,464.147z M175.319,361.249c-29.709-29.708-55.052-61.328-75.421-94.082
			c20.367-32.753,45.711-64.372,75.421-94.082c29.709-29.709,61.328-55.053,94.082-75.421
			c32.753,20.369,64.373,45.712,94.082,75.421c29.718,29.719,55.058,61.337,75.409,94.082c-20.35,32.743-45.69,64.363-75.409,94.082
			c-29.709,29.709-61.329,55.053-94.082,75.421C236.648,416.302,205.027,390.958,175.319,361.249z M466.392,464.148
			c-31.896,31.893-98.427,26.287-172.7-13.443c30.397-20.049,59.733-44.13,87.424-71.821c27.699-27.699,51.776-57.035,71.811-87.421
			C492.668,365.731,498.283,432.259,466.392,464.148z"></path>
	</symbol>

	<symbol id="icon-exit" viewBox="0 0 512 512">
		<path d="M256,0C114.841,0,0,114.841,0,256s114.841,256,256,256s256-114.841,256-256S397.159,0,256,0z M256,485.345
			C129.539,485.345,26.655,382.461,26.655,256S129.539,26.655,256,26.655S485.345,129.539,485.345,256S382.461,485.345,256,485.345z
			"></path>
		<path d="M338.722,115.086c-6.343-3.732-14.513-1.611-18.244,4.733s-1.613,14.513,4.733,18.244
			c41.646,24.492,67.517,69.683,67.517,117.937c0,75.394-61.335,136.729-136.729,136.729c-75.393,0-136.729-61.337-136.729-136.729
			c0-48.254,25.87-93.445,67.517-117.937c6.345-3.73,8.464-11.899,4.733-18.244c-3.73-6.345-11.898-8.462-18.244-4.733
			C123.523,144.347,92.616,198.342,92.616,256c0,90.091,73.293,163.384,163.384,163.384S419.384,346.091,419.382,256
			C419.382,198.343,388.475,144.347,338.722,115.086z"></path>
		<path d="M256,74.832c-7.361,0-13.328,5.968-13.328,13.328V256c0,7.361,5.967,13.328,13.328,13.328
			c7.361,0,13.328-5.967,13.328-13.328V88.16C269.328,80.801,263.361,74.832,256,74.832z"></path>
	</symbol>

	<symbol id="icon-search" viewBox="0 0 512 512">
		<path d="M457.602,54.355c-72.417-72.416-190.245-72.416-262.661,0c-35.081,35.079-54.399,81.721-54.399,131.331
			c0,45.193,16.039,87.917,45.413,121.688l-22.119,22.119l-22.542-22.542c-2.47-2.47-5.821-3.858-9.314-3.858
			c-3.493,0-6.844,1.388-9.314,3.858L17.055,412.563C6.057,423.559,0,438.18,0,453.733c0,15.552,6.057,30.174,17.053,41.17
			c10.998,10.998,25.619,17.054,41.17,17.054c15.551,0,30.174-6.057,41.17-17.053l105.612-105.61c2.47-2.47,3.858-5.821,3.858-9.314
			c0-3.493-1.388-6.844-3.858-9.314l-22.542-22.542l22.126-22.126c34.793,30.215,78.234,45.331,121.682,45.331
			c47.561,0,95.123-18.104,131.331-54.311C492.68,281.938,512,235.298,512,185.688C512,136.075,492.682,89.434,457.602,54.355z
			 M80.765,476.275c-6.021,6.021-14.026,9.337-22.542,9.337c-8.515,0-16.521-3.317-22.542-9.338
			c-6.02-6.02-9.337-14.026-9.337-22.54s3.317-16.521,9.338-22.542l58.934-58.934L139.7,417.34L80.765,476.275z M158.33,398.711
			l-45.084-45.084l18.734-18.734l45.084,45.085L158.33,398.711z M438.973,298.388c-62.144,62.146-163.259,62.146-225.403,0
			c-30.104-30.104-46.683-70.128-46.683-112.702c0-42.574,16.579-82.598,46.683-112.701c31.072-31.072,71.887-46.609,112.702-46.609
			c40.814,0,81.63,15.535,112.702,46.609c30.104,30.103,46.683,70.128,46.683,112.701S469.077,268.284,438.973,298.388z"></path>
		<path d="M417.234,94.721c-50.158-50.156-131.769-50.158-181.927,0c-50.156,50.158-50.156,131.769,0.001,181.927
			c25.079,25.077,58.02,37.617,90.963,37.617s65.885-12.54,90.964-37.617v-0.001C467.391,226.491,467.391,144.879,417.234,94.721z
			 M398.605,258.02c-39.886,39.886-104.783,39.886-144.669,0.001c-39.886-39.886-39.886-104.784-0.001-144.67
			c19.945-19.946,46.136-29.914,72.336-29.914c26.193,0,52.394,9.974,72.334,29.914C438.491,153.236,438.491,218.134,398.605,258.02
			z"></path>
		<path d="M375.321,136.636c-27.048-27.045-71.053-27.045-98.1,0c-5.144,5.144-5.144,13.484,0,18.63
			c5.144,5.144,13.484,5.144,18.63,0c16.772-16.774,44.068-16.774,60.842,0c2.573,2.573,5.943,3.858,9.314,3.858
			c3.371,0,6.743-1.286,9.314-3.858C380.465,150.122,380.465,141.781,375.321,136.636z"></path>
	</symbol>

	<symbol id="icon-message" viewBox="0 0 512 512">
		<path d="M511.609,197.601c-0.001-0.77-0.173-1.933-0.472-2.603c-0.787-2.854-2.536-5.461-5.154-7.281l-73.292-50.948V82.153
			c0-7.24-5.872-13.112-13.112-13.112H335.26l-71.743-49.878c-4.484-3.121-10.437-3.134-14.935-0.026l-72.206,49.904H92.426
			c-7.242,0-13.112,5.872-13.112,13.112v53.973L5.666,187.027c-3.623,2.504-5.583,6.507-5.645,10.6
			C0.017,197.704,0,197.777,0,197.857l0.391,284.235c0.005,3.477,1.391,6.81,3.852,9.266c2.458,2.451,5.788,3.827,9.26,3.827
			c0.007,0,0.012,0,0.018,0l485.385-0.667c7.24-0.01,13.104-5.889,13.094-13.13L511.609,197.601z M432.69,168.708l41.898,29.118
			l-41.898,29.128V168.708z M256.015,45.884l33.31,23.156h-66.812L256.015,45.884z M105.538,95.265h300.928v149.921L305.43,315.428
			l-41.194-31.954c-0.064-0.05-0.119-0.081-0.181-0.126c-4.604-3.454-11.116-3.581-15.894,0.126l-41.493,32.185l-101.13-69.893
			V95.265z M79.314,168.003v59.64l-43.146-29.819L79.314,168.003z M26.258,222.867l158.669,109.655L26.578,455.346L26.258,222.867z
			 M51.875,468.909l204.324-158.484l203.591,157.923L51.875,468.909z M327.144,332.271l158.276-110.036l0.32,233.059
			L327.144,332.271z"></path>
		<path d="M344.77,147.713H167.234c-7.24,0-13.112,5.872-13.112,13.112s5.872,13.112,13.112,13.112H344.77
			c7.242,0,13.112-5.872,13.112-13.112S352.012,147.713,344.77,147.713z"></path>
		<path d="M344.77,215.895H167.234c-7.24,0-13.112,5.872-13.112,13.112c0,7.24,5.872,13.112,13.112,13.112H344.77
			c7.242,0,13.112-5.872,13.112-13.112C357.882,221.767,352.012,215.895,344.77,215.895z"></path>
	</symbol>

	<symbol id="icon-statistics" viewBox="0 0 512 512">
			<path d="M488.399,492h-21.933V173.536c0-14.823-12.06-26.882-26.882-26.882H390.56c-14.823,0-26.882,12.06-26.882,26.882V492
				h-55.692V317.825c0-14.823-12.059-26.882-26.882-26.882H232.08c-14.823,0-26.882,12.06-26.882,26.882V492h-55.692v-90.204
				c0-14.823-12.06-26.882-26.882-26.882H73.599c-14.823,0-26.882,12.06-26.882,26.882V492H23.601c-5.523,0-10,4.477-10,10
				s4.477,10,10,10h464.798c5.523,0,10-4.477,10-10S493.922,492,488.399,492z M129.504,492H66.716v-90.204
				c0-3.795,3.087-6.882,6.882-6.882h49.024c3.795,0,6.882,3.087,6.882,6.882V492z M287.985,492h-62.788V317.825
				c0-3.795,3.087-6.882,6.882-6.882h49.024c3.794,0,6.882,3.087,6.882,6.882V492z M446.466,492h-62.788V173.536
				c0-3.795,3.087-6.882,6.882-6.882h49.024c3.795,0,6.882,3.087,6.882,6.882V492z"></path>
			<path d="M466.442,10.516c0.14-2.729-0.82-5.504-2.904-7.588c-2.084-2.084-4.859-3.045-7.588-2.904
				C455.789,0.017,455.63,0,455.466,0h-60.5c-5.523,0-10,4.477-10,10s4.477,10,10,10h37.357l-98.857,98.858l-37.28-37.28
				c-1.875-1.875-4.419-2.929-7.071-2.929c-2.652,0-5.196,1.054-7.071,2.929l-179.769,179.77c-3.905,3.905-3.905,10.237,0,14.143
				c1.953,1.951,4.512,2.927,7.071,2.927s5.119-0.976,7.071-2.929L289.115,102.79l37.28,37.28c3.905,3.905,10.237,3.905,14.143,0
				L446.466,34.143v33.81c0,5.523,4.477,10,10,10s10-4.477,10-10V11C466.466,10.837,466.449,10.678,466.442,10.516z"></path>
		<circle cx="75.64" cy="303.31" r="10"></circle>
	</symbol>

	<symbol id="icon-forum" viewBox="0 0 512 512">
		<path d="M270.948,302.936c-10.562-14.943-27.525-24.074-45.713-24.765c-0.385-0.043-0.775-0.067-1.171-0.067
			c-23.135,0-42.252-17.484-44.859-39.93c6.661-4.851,12.807-11.007,18.254-18.381c11.015-14.913,18.165-33.547,20.816-53.698
			c0.812-0.883,1.496-1.911,1.987-3.081c4.664-11.106,7.029-22.963,7.029-35.242c0-47.221-35.702-85.637-79.584-85.637
			c-11.349,0-22.36,2.578-32.768,7.665c-3.891,0.328-7.704,1.028-11.365,2.088c-36.686,10.599-57.421,54.957-46.22,98.88
			c1.127,4.419,2.56,8.765,4.262,12.916c0.464,1.134,1.114,2.13,1.88,3c4.225,31.022,18.908,56.833,38.989,71.434
			c-2.581,22.474-21.712,39.988-44.867,39.988c-0.356,0-0.708,0.019-1.056,0.053C25.185,279.268,0,305.121,0,336.763v63.14
			c0,5.891,4.775,10.666,10.666,10.666h188.451c5.89,0,10.666-4.775,10.666-10.666s-4.776-10.666-10.666-10.666H21.331v-52.475
			c0-20.585,16.746-37.33,37.33-37.33c0.356,0,0.708-0.019,1.056-0.053c7.683-0.24,15.04-1.786,21.858-4.429l50.497,72.883
			c1.992,2.875,5.268,4.592,8.767,4.592c3.499,0,6.775-1.716,8.767-4.592l50.498-72.883c6.819,2.643,14.175,4.189,21.858,4.429
			c0.348,0.034,0.7,0.053,1.056,0.053c12.105,0,23.511,5.912,30.51,15.815c2.078,2.94,5.372,4.51,8.719,4.51
			c2.128,0,4.277-0.636,6.147-1.957C273.205,314.402,274.347,307.746,270.948,302.936z M109.492,72.377
			c2.798-0.808,5.757-1.288,8.796-1.425c1.566-0.07,3.094-0.484,4.482-1.213c7.926-4.164,16.314-6.276,24.933-6.276
			c31.47,0,57.174,27.694,58.204,62.162c-6.414-4.85-14.393-7.733-23.035-7.733h-55.779c-2.778,0-5.416-0.872-7.625-2.521
			c-1.891-1.411-3.351-3.305-4.224-5.482c-2.015-5.014-7-8.146-12.383-7.806c-5.416,0.347-9.973,4.111-11.338,9.361
			c-2.721,10.453-7.801,20.188-14.708,28.455C71.283,108.973,85.213,79.392,109.492,72.377z M84.479,162.705
			c9.316-8.54,16.855-18.89,22.119-30.32c0.036,0.027,0.073,0.054,0.11,0.081c5.925,4.422,12.973,6.758,20.384,6.758h55.779
			c6.7,0,12.487,3.92,15.234,9.577c-0.071,22.157-6.384,42.854-17.806,58.315c-10.771,14.58-24.785,22.61-39.462,22.61
			c-13.583,0-26.807-7.017-37.236-19.757C93.483,197.61,86.788,180.974,84.479,162.705z M140.838,343.031l-40.817-58.912
			c10.95-9.086,18.932-21.616,22.307-35.908c5.943,1.86,12.141,2.848,18.509,2.848c6.334,0,12.537-0.961,18.52-2.817
			c3.379,14.278,11.358,26.796,22.3,35.876L140.838,343.031z"></path>
		<path d="M455.441,337.455c-0.348-0.034-0.7-0.053-1.056-0.053c-23.167,0-42.305-17.531-44.871-40.023
			c13.062-9.512,23.832-23.774,30.931-41.119c1.016,3.324,3.617,6.008,7.039,7.069c1.04,0.322,2.104,0.479,3.157,0.479
			c3.232,0,6.36-1.473,8.417-4.114c14.881-19.112,22.616-43.986,21.784-70.041c-0.818-25.56-9.803-49.555-25.303-67.563
			c-15.869-18.438-36.819-28.699-59.012-28.911c-1.177-0.048-4.104,0.053-4.577,0.082c-11.402-5.172-23.45-7.588-35.858-7.194
			c-25.625,0.819-49.196,13.591-66.369,35.963c-16.688,21.741-25.355,50.098-24.404,79.85c0.161,5.041,0.559,9.683,1.203,14.103
			c1.737,12.679,5.23,24.822,10.381,36.091c1.639,3.587,5.124,5.977,9.06,6.213c3.923,0.237,7.681-1.718,9.739-5.083
			c0.858-1.403,1.961-3.152,3.178-4.866c4.755,14.445,12.024,27.423,21.253,37.669c3.937,4.371,8.189,8.173,12.667,11.416
			c-2.586,22.469-21.715,39.977-44.866,39.977c-0.356,0-0.708,0.019-1.056,0.053c-31.374,1.112-56.558,26.967-56.558,58.607v63.14
			c0,5.891,4.776,10.666,10.666,10.666h260.346c5.89,0,10.666-4.775,10.666-10.666v-63.14
			C512,364.422,486.815,338.568,455.441,337.455z M290.112,225.625c-1.052-4.108-1.876-8.321-2.467-12.626
			c-0.54-3.708-0.868-7.568-1.003-11.799c-0.794-24.837,6.31-48.341,20.004-66.18c13.208-17.208,31.01-27.02,50.128-27.631
			c0.639-0.021,14.387-0.795,28.421,6.277c1.569,0.79,3.377,1.157,5.138,1.107c0.202-0.006,5.677-0.265,5.836-0.263
			c16.02,0.106,31.362,7.741,43.203,21.497c12.331,14.328,19.487,33.622,20.149,54.329c0.359,11.247-1.221,22.18-4.567,32.239
			c-1.008-2.686-2.132-5.331-3.369-7.932c-10.298-21.91-27.633-38.881-48.812-47.788c-2.683-1.128-5.709-1.111-8.378,0.047
			c-2.67,1.157-4.75,3.355-5.759,6.085c-1.42,3.836-3.14,7.573-5.116,11.106c-5.584,9.986-16.842,15.927-29.361,15.489
			c-1.879-0.064-3.786-0.067-5.666-0.007c-9.223,0.295-18.217,2.053-26.78,5.242C313.255,208.009,299.041,216.018,290.112,225.625z
			 M316.351,231.43c4.044-2.709,8.347-4.94,12.853-6.643c6.344-2.362,13.063-3.672,19.97-3.893c1.41-0.046,2.838-0.044,4.246,0.005
			c20.594,0.705,39.217-9.405,48.718-26.396c0.584-1.045,1.152-2.106,1.701-3.177c9.728,5.993,18.043,14.44,24.295,24.692
			c-0.054,0.316-0.1,0.633-0.126,0.959c-1.636,20.237-8.617,38.809-19.658,52.295c-10.429,12.741-23.653,19.757-37.236,19.757
			C346.004,289.027,323.666,265.158,316.351,231.43z M352.654,307.492c6.003,1.876,12.194,2.866,18.46,2.866
			c6.384,0,12.597-0.994,18.555-2.864c4.284,18.163,16.029,33.466,31.818,42.495c-6.159,22.255-26.627,38.258-50.324,38.258
			c-23.699,0-44.166-16.004-50.324-38.26C336.626,340.96,348.371,325.656,352.654,307.492z M490.669,448.537H251.654v-52.475
			c0-20.583,16.746-37.33,37.33-37.33c0.356,0,0.708-0.019,1.056-0.053c3.673-0.115,7.274-0.519,10.775-1.209
			c9.265,30.416,37.613,52.11,70.347,52.11c32.734,0,61.081-21.694,70.348-52.109c3.5,0.69,7.101,1.094,10.773,1.208
			c0.348,0.034,0.7,0.053,1.056,0.053c20.584,0,37.33,16.746,37.33,37.33V448.537z"></path>
	</symbol>

	<symbol id="icon-support" viewBox="0 0 512 512">
		<path d="M498.667,290.667H404V240c0-1.016,0.313-2.036,0.291-3.055C452.4,231.927,480,200.272,480,148.333v-12
			c0-7.364-5.971-13.333-13.333-13.333s-13.333,5.969-13.333,13.333v12c0,38.399-17.005,58.821-51.885,62.167
			c-6.069-27.025-20.875-50.381-45.537-55.7c-3.745-28.54-21.413-52.689-46.115-65.227c10.321-10.501,16.871-24.887,16.871-40.74V37
			c0-7.364-5.971-13.333-13.333-13.333S300,29.636,300,37v11.833C300,66.203,285.536,80,268.167,80h-23
			c-17.369,0-31.833-13.797-31.833-31.167V37c0-7.364-5.971-13.333-13.333-13.333S186.667,29.636,186.667,37v11.833
			c0,15.853,6.549,30.239,16.871,40.741c-24.701,12.537-42.453,36.687-46.199,65.227c-24.695,5.324-39.465,28.736-45.519,55.808
			c-35.759-2.96-53.153-23.403-53.153-62.276v-12c0-7.364-5.971-13.333-13.333-13.333S32,128.969,32,136.333v12
			c0,52.415,27.439,84.168,76.375,88.739C108.353,238.048,108,239.025,108,240v50.667H13.333C5.971,290.667,0,296.636,0,304
			s5.971,13.333,13.333,13.333H108v23c0,10.628,1.469,20.993,3.608,30.992C60.659,374.777,32,406.773,32,460.333v12
			c0,7.364,5.971,13.333,13.333,13.333s13.333-5.969,13.333-13.333v-12c0-41.795,20.151-62.291,61.565-62.649
			c22.451,53.208,75.151,90.649,136.435,90.649c61.276,0,113.971-37.432,136.425-90.629c40.519,0.784,60.241,21.283,60.241,62.629
			v12c0,7.364,5.971,13.333,13.333,13.333S480,479.697,480,472.333v-12c0-53.1-28.823-85.013-78.96-88.921
			c2.151-10.025,2.96-20.421,2.96-31.079v-23h94.667c7.363,0,13.333-5.969,13.333-13.333S506.029,290.667,498.667,290.667z
			 M242.667,460.855c-60.333-6.964-108-58.353-108-120.521V240c0-20.793,6.948-50.531,24.483-58.035
			c6.627,18.368,24.56,31.368,45.184,31.368h38.333V460.855z M204.333,186.667c-11.58,0-21-9.42-21-21c0-32.532,26.468-59,59-59
			h2.833h23H271c32.532,0,59,26.468,59,59c0,11.58-9.42,21-21,21H204.333z M377.333,340.333c0,62.627-47.027,114.32-108,120.673
			V213.333H309c20.624,0,37.891-13,44.517-31.368c17.535,7.504,23.816,37.241,23.816,58.035V340.333z"></path>
	</symbol>

	<symbol id="icon-book" viewBox="0 0 512 512">
		<path d="M487.82,386.762l-76.821-210.191V53.604c0-5.522-4.477-10-10-10l-38.598-0.002L348.865,6.569
			c-1.896-5.188-7.637-7.853-12.825-5.96L218.424,43.596h-2.633c0.154-4.554-1.488-9.158-4.956-12.627l-15.031-15.031
			c2.669-3.894,2.281-9.255-1.178-12.714c-3.905-3.906-10.236-3.905-14.143,0l-40.379,40.379H75.308c-5.523,0-10,4.477-10,10v45.954
			l-35.169,12.855c-2.491,0.911-4.519,2.773-5.636,5.179c-1.118,2.405-1.234,5.156-0.324,7.646l41.128,112.53v220.629
			c0,5.523,4.477,10,10,10h74.291l13.536,37.035c1.482,4.055,5.313,6.57,9.393,6.57c1.14,0,2.299-0.197,3.432-0.61l117.638-42.995
			h107.401c5.522,0,10-4.477,10-10v-32.909l70.861-25.899c2.491-0.911,4.519-2.773,5.636-5.178
			C488.614,392.004,488.73,389.253,487.82,386.762z M65.308,179.505l-18.911-51.742l18.911-6.911V179.505z M333.512,22.827
			l7.594,20.775l-64.426-0.003L333.512,22.827z M150.633,61.364l31.157-31.155L194.78,43.2c-2.168,3.101-3.264,6.869-3.054,10.698
			c0.005,0.098,0.025,0.194,0.032,0.292c0.006,0.103,0.002,0.206,0.012,0.31c0.019,0.212,0.063,0.419,0.09,0.629
			c0.035,0.275,0.069,0.55,0.117,0.823c0.051,0.286,0.118,0.568,0.184,0.851c0.069,0.296,0.135,0.592,0.219,0.883
			c0.07,0.241,0.154,0.475,0.235,0.712c0.109,0.322,0.215,0.643,0.343,0.958c0.08,0.197,0.174,0.386,0.261,0.58
			c0.152,0.338,0.303,0.676,0.476,1.004c0.09,0.169,0.193,0.33,0.289,0.496c0.192,0.334,0.382,0.669,0.596,0.99
			c0.113,0.169,0.241,0.328,0.36,0.493c0.217,0.301,0.429,0.604,0.665,0.891c0.177,0.215,0.374,0.414,0.562,0.62
			c0.2,0.22,0.39,0.448,0.602,0.657c0.41,0.406,0.841,0.791,1.292,1.155c0.005,0.004,0.01,0.01,0.016,0.014l18.126,14.538
			l-22.774,22.775l-14.537-18.126c-1.058-1.319-2.306-2.448-3.677-3.385c-0.099-0.068-0.19-0.146-0.29-0.212
			c-0.08-0.052-0.166-0.093-0.247-0.143c-2.428-1.529-5.224-2.45-8.144-2.61c-0.31-0.017-0.619-0.025-0.928-0.025
			c-0.089,0-0.177,0.009-0.266,0.01c-0.203,0.003-0.405,0.013-0.607,0.023c-0.255,0.013-0.509,0.03-0.762,0.055
			c-0.202,0.02-0.403,0.043-0.604,0.07c-0.252,0.034-0.503,0.073-0.753,0.118c-0.197,0.035-0.394,0.072-0.589,0.115
			c-0.252,0.054-0.501,0.116-0.749,0.182c-0.189,0.05-0.378,0.099-0.566,0.155c-0.252,0.076-0.501,0.161-0.749,0.249
			c-0.179,0.063-0.358,0.123-0.534,0.191c-0.256,0.1-0.506,0.211-0.757,0.323c-0.163,0.073-0.327,0.14-0.487,0.218
			c-0.273,0.132-0.539,0.278-0.804,0.424c-0.131,0.072-0.265,0.137-0.394,0.213c-0.391,0.229-0.774,0.472-1.147,0.733
			l-12.994-12.994L150.633,61.364z M178.486,489.173l-7.594-20.777h64.442L178.486,489.173z M85.308,448.395V63.604h34.798
			l-4.243,4.243c-3.905,3.905-3.905,10.237,0,14.142c1.953,1.953,4.512,2.929,7.071,2.929c1.975,0,3.947-0.588,5.643-1.751
			l15.031,15.033c2.816,2.816,6.443,4.524,10.355,4.907c0.559,0.055,1.123,0.082,1.692,0.082c0.43,0,0.857-0.016,1.281-0.047
			c2.241-0.166,4.391-0.773,6.361-1.765c0.641-0.323,1.268-0.679,1.867-1.084l14.734,18.37c1.891,2.357,4.359,4.145,7.123,5.22
			c1.658,0.645,3.423,1.032,5.234,1.131c0.311,0.017,0.62,0.025,0.929,0.025c0.153,0,0.304-0.018,0.457-0.023
			c0.271-0.007,0.541-0.02,0.81-0.04c0.307-0.023,0.612-0.056,0.917-0.096c0.27-0.035,0.538-0.072,0.805-0.12
			c0.302-0.054,0.601-0.121,0.899-0.191c0.261-0.061,0.522-0.122,0.779-0.196c0.3-0.086,0.595-0.186,0.89-0.288
			c0.247-0.085,0.495-0.167,0.737-0.264c0.3-0.119,0.592-0.256,0.885-0.392c0.227-0.106,0.457-0.205,0.679-0.32
			c0.303-0.157,0.594-0.335,0.888-0.51c0.201-0.12,0.406-0.231,0.602-0.36c0.32-0.21,0.625-0.442,0.931-0.674
			c0.155-0.118,0.318-0.224,0.47-0.347c0.451-0.366,0.886-0.754,1.3-1.169l6.656-6.656l13.255,13.255
			c1.953,1.953,4.512,2.929,7.071,2.929s5.119-0.977,7.071-2.929c3.905-3.905,3.905-10.237,0-14.142l-13.255-13.254l6.655-6.655
			c3.419-3.419,5.228-8.149,4.964-12.977c-0.265-4.828-2.58-9.333-6.352-12.358l-4.561-3.658h164.261v384.791H85.308z
			 M410.998,404.192V234.834l54.603,149.402L410.998,404.192z"></path>
		<path d="M370.398,180.99c-0.13-0.64-0.319-1.27-0.569-1.88c-0.25-0.6-0.561-1.18-0.92-1.72c-0.37-0.55-0.78-1.06-1.25-1.52
			c-0.46-0.46-0.971-0.88-1.521-1.24c-0.54-0.36-1.12-0.67-1.72-0.92c-0.61-0.25-1.23-0.45-1.87-0.57c-1.29-0.26-2.62-0.26-3.91,0
			c-0.64,0.12-1.27,0.32-1.87,0.57c-0.6,0.25-1.189,0.56-1.729,0.92c-0.55,0.36-1.061,0.78-1.521,1.24
			c-0.46,0.46-0.88,0.97-1.239,1.52c-0.36,0.54-0.671,1.12-0.921,1.72c-0.25,0.61-0.439,1.24-0.569,1.88
			c-0.13,0.64-0.2,1.3-0.2,1.95c0,2.63,1.07,5.21,2.93,7.07c0.459,0.46,0.97,0.879,1.519,1.24c0.54,0.36,1.13,0.67,1.729,0.92
			c0.601,0.25,1.23,0.44,1.87,0.57c0.641,0.13,1.3,0.2,1.95,0.2c0.66,0,1.31-0.07,1.96-0.2c0.64-0.13,1.26-0.32,1.87-0.57
			c0.6-0.25,1.18-0.56,1.72-0.92c0.55-0.36,1.061-0.78,1.521-1.24c1.87-1.86,2.93-4.44,2.93-7.07
			C370.588,182.29,370.528,181.63,370.398,180.99z"></path>
		<path d="M324.303,172.94h-80.958c-5.523,0-10,4.477-10,10s4.477,10,10,10h80.958c5.522,0,10-4.477,10-10
			S329.825,172.94,324.303,172.94z"></path>
		<path d="M360.592,214.032H243.345c-5.523,0-10,4.477-10,10s4.477,10,10,10h117.247c5.522,0,10-4.477,10-10
			S366.115,214.032,360.592,214.032z"></path>
		<path d="M159.67,149.529c-29.752,0-53.957,24.205-53.957,53.957c0,29.753,24.205,53.957,53.957,53.957
			c29.752,0,53.956-24.205,53.956-53.957C213.627,173.734,189.422,149.529,159.67,149.529z M159.67,237.443
			c-18.724,0-33.958-15.233-33.958-33.958c0-18.725,15.233-33.958,33.958-33.958c18.725,0,33.957,15.233,33.957,33.958
			C193.627,222.21,178.394,237.443,159.67,237.443z"></path>
		<path d="M181.777,187.75c-3.905-3.905-10.237-3.904-14.142,0.001l-12.625,12.625l-6.591-2.694
			c-5.112-2.088-10.95,0.36-13.041,5.472c-2.09,5.112,0.36,10.951,5.472,13.041l12.745,5.21c1.225,0.5,2.509,0.744,3.782,0.744
			c2.603,0,5.161-1.017,7.073-2.93l17.327-17.327C185.682,197.987,185.682,191.655,181.777,187.75z"></path>
		<path d="M370.398,314.259c-0.13-0.63-0.319-1.26-0.569-1.87c-0.25-0.6-0.561-1.18-0.92-1.72c-0.37-0.55-0.78-1.06-1.25-1.52
			c-0.46-0.46-0.971-0.88-1.521-1.25c-0.54-0.36-1.12-0.67-1.72-0.92c-0.61-0.25-1.23-0.44-1.87-0.57c-1.29-0.26-2.62-0.26-3.91,0
			c-0.64,0.13-1.27,0.32-1.87,0.57c-0.6,0.25-1.189,0.56-1.729,0.92c-0.55,0.37-1.061,0.79-1.521,1.25
			c-0.46,0.46-0.88,0.97-1.239,1.52c-0.36,0.54-0.671,1.12-0.921,1.72c-0.25,0.61-0.439,1.24-0.569,1.87
			c-0.13,0.65-0.2,1.31-0.2,1.96c0,0.65,0.07,1.31,0.2,1.95s0.319,1.27,0.569,1.87c0.25,0.61,0.56,1.19,0.921,1.73
			c0.359,0.55,0.779,1.06,1.239,1.52c0.46,0.46,0.971,0.88,1.521,1.24c0.54,0.36,1.13,0.67,1.729,0.92
			c0.601,0.25,1.23,0.44,1.87,0.57c0.641,0.13,1.3,0.2,1.95,0.2c0.66,0,1.31-0.07,1.96-0.2c0.64-0.13,1.26-0.32,1.87-0.57
			c0.6-0.25,1.18-0.56,1.72-0.92c0.55-0.36,1.061-0.78,1.521-1.24c0.47-0.46,0.88-0.97,1.25-1.52c0.359-0.54,0.67-1.12,0.92-1.73
			c0.25-0.6,0.439-1.23,0.569-1.87c0.131-0.64,0.19-1.3,0.19-1.95S370.528,314.909,370.398,314.259z"></path>
		<path d="M324.303,306.217h-80.958c-5.523,0-10,4.477-10,10s4.477,10,10,10h80.958c5.522,0,10-4.477,10-10
			S329.825,306.217,324.303,306.217z"></path>
		<path d="M360.592,347.309H243.345c-5.523,0-10,4.477-10,10s4.477,10,10,10h117.247c5.522,0,10-4.477,10-10
			S366.115,347.309,360.592,347.309z"></path>
		<path d="M159.67,282.806c-29.752,0-53.957,24.205-53.957,53.958c0,29.753,24.205,53.957,53.957,53.957
			c29.752,0,53.956-24.205,53.956-53.957C213.627,307.01,189.422,282.806,159.67,282.806z M159.67,370.721
			c-18.724,0-33.958-15.233-33.958-33.958c0-18.725,15.233-33.958,33.958-33.958c18.725,0,33.957,15.233,33.957,33.958
			C193.627,355.488,178.394,370.721,159.67,370.721z"></path>
		<path d="M181.777,321.028c-3.905-3.905-10.237-3.905-14.142,0.001l-12.625,12.625l-6.591-2.694
			c-5.112-2.088-10.95,0.36-13.041,5.472c-2.09,5.112,0.36,10.951,5.472,13.041l12.745,5.21c1.225,0.5,2.509,0.744,3.782,0.744
			c2.603,0,5.161-1.017,7.073-2.93l17.327-17.327C185.682,331.265,185.682,324.933,181.777,321.028z"></path>
	</symbol>

	<symbol id="icon-sim" viewBox="0 0 512 512">
		<path d="M240.155,137.887c-1.859-1.859-4.438-2.929-7.067-2.929c-2.639,0-5.208,1.07-7.067,2.929
			c-1.869,1.859-2.929,4.438-2.929,7.067c0,2.629,1.06,5.208,2.929,7.067c1.859,1.858,4.428,2.929,7.067,2.929
			c2.629,0,5.208-1.07,7.067-2.929s2.929-4.438,2.929-7.067C243.084,142.325,242.015,139.746,240.155,137.887z"></path>
		<path d="M285.756,362.359c-1.859-1.859-4.438-2.929-7.067-2.929s-5.208,1.069-7.067,2.929c-1.859,1.86-2.929,4.438-2.929,7.067
			c0,2.629,1.07,5.208,2.929,7.066c1.859,1.86,4.438,2.93,7.067,2.93s5.208-1.07,7.067-2.93c1.869-1.858,2.929-4.437,2.929-7.066
			C288.684,366.797,287.625,364.218,285.756,362.359z"></path>
		<path d="M296.95,214.196c-5.521,0-9.996,4.476-9.996,9.996v63.568c0,5.521,4.475,9.996,9.996,9.996
			c5.521,0,9.996-4.476,9.996-9.996v-63.568C306.945,218.672,302.47,214.196,296.95,214.196z"></path>
		<path d="M272.391,284.215l-24.109-63.568c-1.473-3.883-5.193-6.451-9.346-6.451s-7.873,2.568-9.346,6.451l-24.109,63.568
			c-1.956,5.162,0.641,10.933,5.802,12.89c5.163,1.961,10.933-0.639,12.89-5.802l2.654-6.998h24.218l2.654,6.998
			c1.515,3.995,5.314,6.454,9.348,6.454c1.177,0,2.376-0.21,3.542-0.653C271.752,295.148,274.349,289.378,272.391,284.215z
			 M234.411,264.315l4.527-11.936l4.527,11.936H234.411z"></path>
		<path d="M478.015,443.944c-5.736,0-11.14,1.433-15.884,3.953l-26.657-26.657v-14.898c11.276-11.776,18.226-27.726,18.226-45.278
			c0-9.065-1.912-18.015-5.505-26.248c20.992-5.232,36.594-24.238,36.594-46.827v-89.005c0-25.409-19.742-46.279-44.69-48.113
			c1.081-3.985,1.648-8.127,1.648-12.338c0-8.528-2.292-16.528-6.274-23.434V90.762l26.657-26.657
			c4.744,2.519,10.149,3.953,15.884,3.953c18.74,0,33.985-15.245,33.985-33.985c0-18.74-15.245-33.985-33.985-33.985
			c-18.74,0-33.985,15.245-33.985,33.985c0,5.742,1.436,11.152,3.961,15.9L418.41,79.554c-1.874,1.875-2.928,4.417-2.928,7.068
			v9.705c-6.276-3.106-13.336-4.861-20.801-4.861c-4.045,0-8.036,0.514-11.888,1.517c-6.013-25.51-28.952-44.561-56.273-44.561
			c-31.885,0-57.826,25.941-57.826,57.826v63.765h-64.284c-2.651,0-5.194,1.054-7.068,2.928l-24.489,24.489
			c-1.874,1.875-2.928,4.417-2.928,7.068v102.955c0,2.651,1.054,5.193,2.928,7.068l24.489,24.489
			c1.874,1.874,4.417,2.928,7.068,2.928h18.68v63.467c0,21.026-17.107,38.131-38.132,38.131c-15.03,0-28.672-8.854-34.805-22.566
			c8.743-3.875,16.608-9.65,22.98-17.001c1.805,0.37,3.674,0.565,5.588,0.565c15.325,0,27.793-12.468,27.793-27.793
			s-12.468-27.793-27.793-27.793c-15.325,0-27.793,12.468-27.793,27.793c0,6.03,1.937,11.614,5.213,16.174
			c-8.498,8.673-20.18,13.685-32.531,13.685c-25.111,0-45.54-20.429-45.54-45.54c0-9.491,2.847-18.462,8.244-26.128
			c6.018-1.427,11.732-3.992,16.793-7.561c5.331,3.665,11.779,5.816,18.723,5.816c18.269,0,33.132-14.862,33.132-33.132
			c0-18.268-14.864-33.132-33.132-33.132s-33.132,14.862-33.132,33.132c0,4.063,0.739,7.956,2.083,11.556
			c-4.564,3.02-9.905,4.644-15.532,4.644c-15.587,0-28.268-12.681-28.268-28.269v-89.005c0-15.587,12.681-28.268,28.268-28.268
			c12.945,0,23.879,8.75,27.215,20.644c-9.843,4.282-16.745,14.096-16.745,25.496c0,15.325,12.468,27.793,27.793,27.793
			s27.793-12.468,27.793-27.793c0-12.079-7.747-22.376-18.531-26.2c-2.728-15.61-12.972-28.665-26.863-35.275
			c-3.806-4.779-5.888-10.69-5.888-16.849c0-14.929,12.146-27.075,27.075-27.075c3.656,0,7.226,0.745,10.537,2.145
			c0.77,7.958,3.729,15.459,8.564,21.8c-1.069,3.154-1.657,6.527-1.657,10.037c0,17.287,14.065,31.351,31.352,31.351
			s31.352-14.064,31.352-31.351s-14.065-31.352-31.352-31.352c-6.033,0-11.671,1.717-16.459,4.683
			c-1.303-2.917-2.012-6.09-2.012-9.373v-1.261c0.022-0.376,0.02-0.751,0-1.125v-0.763c0-20.862,16.972-37.835,37.834-37.835
			s37.835,16.972,37.835,37.835c0,5.52,4.475,9.996,9.996,9.996c5.521,0,9.996-4.476,9.996-9.996
			c0-31.884-25.941-57.826-57.826-57.826c-27.32,0-50.259,19.051-56.272,44.561c-3.852-1.003-7.843-1.517-11.888-1.517
			c-7.376,0-14.358,1.709-20.578,4.746v-9.591c0-2.651-1.054-5.193-2.928-7.068L64.009,49.972c2.525-4.747,3.961-10.158,3.961-15.9
			c0-18.74-15.245-33.985-33.985-33.985C15.245,0.087,0,15.332,0,34.072c0,18.74,15.245,33.985,33.985,33.985
			c5.736,0,11.14-1.433,15.884-3.953l26.657,26.658v23.95c-4.121,6.993-6.497,15.132-6.497,23.821c0,4.21,0.569,8.352,1.648,12.338
			c-24.947,1.835-44.69,22.705-44.69,48.114v89.005c0,22.588,15.602,41.595,36.594,46.827c-3.592,8.231-5.505,17.183-5.505,26.248
			c0,17.668,7.041,33.714,18.449,45.512v14.664l-26.657,26.657c-4.744-2.519-10.149-3.953-15.884-3.953
			C15.245,443.944,0,459.189,0,477.929s15.245,33.985,33.985,33.985c18.74,0,33.985-15.245,33.985-33.985
			c0-5.741-1.436-11.152-3.961-15.9l29.581-29.581c1.874-1.875,2.928-4.417,2.928-7.068v-4.672
			c8.263,3.768,17.431,5.885,27.091,5.885c2.352,0,4.686-0.134,6.996-0.381l1.201,2.713c9.302,21.02,30.165,34.603,53.152,34.603
			c32.049,0,58.124-26.074,58.124-58.123v-63.467h64.285c2.651,0,5.194-1.054,7.068-2.928l24.489-24.489
			c1.874-1.875,2.928-4.417,2.928-7.068V204.498c0-2.651-1.054-5.193-2.928-7.068l-24.489-24.489
			c-1.874-1.874-4.417-2.928-7.068-2.928h-18.68v-63.765c0-20.862,16.972-37.835,37.835-37.835s37.835,16.972,37.835,37.835v0.763
			c-0.02,0.374-0.022,0.749,0,1.125v1.261c0,3.283-0.708,6.456-2.012,9.373c-4.788-2.966-10.425-4.683-16.459-4.683
			c-17.287,0-31.352,14.065-31.352,31.352c0,17.287,14.065,31.351,31.352,31.351c17.287,0,31.352-14.064,31.352-31.351
			c0-3.51-0.589-6.883-1.657-10.037c4.835-6.341,7.795-13.843,8.564-21.8c3.313-1.4,6.881-2.145,10.537-2.145
			c14.93,0,27.075,12.146,27.075,27.075c0,6.158-2.083,12.07-5.888,16.849c-13.891,6.609-24.135,19.664-26.863,35.275
			c-10.784,3.823-18.531,14.122-18.531,26.2c0,15.325,12.468,27.793,27.793,27.793s27.793-12.468,27.793-27.793
			c0-11.4-6.902-21.215-16.745-25.496c3.337-11.894,14.27-20.644,27.215-20.644c15.587,0,28.268,12.681,28.268,28.268v89.005
			c0,15.588-12.682,28.269-28.268,28.269c-5.629,0-10.968-1.624-15.532-4.644c1.344-3.6,2.083-7.493,2.083-11.556
			c0-18.268-14.864-33.132-33.132-33.132s-33.132,14.862-33.132,33.132c0,18.269,14.864,33.132,33.132,33.132
			c6.944,0,13.392-2.151,18.723-5.816c5.061,3.568,10.775,6.133,16.793,7.561c5.398,7.665,8.244,16.637,8.244,26.128
			c0,25.111-20.429,45.54-45.54,45.54c-12.351,0-24.033-5.012-32.531-13.685c3.276-4.56,5.213-10.144,5.213-16.174
			c0-15.325-12.468-27.793-27.793-27.793c-15.325,0-27.793,12.468-27.793,27.793s12.468,27.793,27.793,27.793
			c1.913,0,3.782-0.195,5.588-0.565c6.372,7.35,14.237,13.125,22.98,17.001c-6.133,13.712-19.774,22.566-34.805,22.566
			c-21.027,0-38.132-17.106-38.132-38.131c0-5.52-4.475-9.996-9.996-9.996s-9.996,4.476-9.996,9.996
			c0,32.049,26.075,58.123,58.124,58.123c22.987,0,43.851-13.583,53.153-34.604l1.2-2.712c2.31,0.248,4.644,0.381,6.996,0.381
			c9.746,0,18.993-2.154,27.313-5.986v4.772c0,2.651,1.054,5.193,2.928,7.068l29.581,29.581c-2.525,4.748-3.961,10.159-3.961,15.9
			c0,18.74,15.245,33.985,33.985,33.985s33.985-15.245,33.985-33.985S496.754,443.944,478.015,443.944z M478.015,20.078
			c7.717,0,13.994,6.277,13.994,13.994c0,7.717-6.277,13.994-13.994,13.994s-13.994-6.277-13.994-13.994
			C464.021,26.355,470.298,20.078,478.015,20.078z M178.72,368.942c4.302,0,7.802,3.499,7.802,7.802s-3.499,7.802-7.802,7.802
			s-7.802-3.5-7.802-7.802S174.419,368.942,178.72,368.942z M121.829,286.919c7.246,0,13.14,5.894,13.14,13.14
			s-5.894,13.14-13.14,13.14s-13.14-5.894-13.14-13.14C108.689,292.814,114.583,286.919,121.829,286.919z M113.512,209.054
			c4.302,0,7.802,3.499,7.802,7.802s-3.5,7.802-7.802,7.802s-7.802-3.499-7.802-7.802S109.209,209.054,113.512,209.054z
			 M165.893,134.078c6.264,0,11.361,5.097,11.361,11.361s-5.097,11.36-11.361,11.36c-6.264,0-11.361-5.097-11.361-11.36
			C154.532,139.175,159.628,134.078,165.893,134.078z M33.985,48.066c-7.717,0-13.994-6.277-13.994-13.994
			c0-7.717,6.277-13.994,13.994-13.994c7.717,0,13.994,6.277,13.994,13.994C47.979,41.789,41.702,48.066,33.985,48.066z
			 M33.985,491.923c-7.717,0-13.994-6.277-13.994-13.994c0-7.717,6.277-13.994,13.994-13.994c7.717,0,13.994,6.277,13.994,13.994
			C47.979,485.645,41.702,491.923,33.985,491.923z M303.226,190.004l18.634,18.635v94.674l-18.634,18.635h-94.675l-18.634-18.635
			v-94.674l18.634-18.635H303.226z M345.884,156.801c-6.264,0-11.361-5.097-11.361-11.36c0-6.265,5.097-11.361,11.361-11.361
			s11.361,5.097,11.361,11.361C357.245,151.704,352.149,156.801,345.884,156.801z M398.266,224.657
			c-4.302,0-7.802-3.499-7.802-7.802s3.499-7.802,7.802-7.802s7.802,3.499,7.802,7.802S402.568,224.657,398.266,224.657z
			 M389.947,313.199c-7.246,0-13.14-5.894-13.14-13.14c0-7.245,5.894-13.14,13.14-13.14s13.14,5.894,13.14,13.14
			S397.193,313.199,389.947,313.199z M333.057,384.545c-4.302,0-7.802-3.5-7.802-7.802c0-4.302,3.5-7.802,7.802-7.802
			c4.302,0,7.802,3.5,7.802,7.802S337.359,384.545,333.057,384.545z M478.015,491.923c-7.717,0-13.994-6.277-13.994-13.994
			c0-7.717,6.277-13.994,13.994-13.994s13.994,6.277,13.994,13.994C492.009,485.645,485.73,491.923,478.015,491.923z"></path>
	</symbol>

	<symbol id="icon-alliance" viewBox="0 0 512 512">
		<path d="M454.889,430.401l-8.412-3.373C488.78,379.97,512,319.526,512,256c0-51.971-15.712-101.977-44.339-144.014
			c-0.347-0.683-0.777-1.298-1.277-1.835c-12.541-18.075-27.47-34.653-44.602-49.226c-3.401-2.893-8.502-2.481-11.395,0.92
			c-2.893,3.401-2.481,8.504,0.919,11.396c13.744,11.691,25.977,24.759,36.589,38.902c-17.112,6.688-37.652,12.352-60.582,16.827
			c-6.33-18.86-14.11-36.444-23.256-52.309c-12.327-21.385-26.506-38.605-41.959-51.27c24.051,6.876,46.962,17.53,67.987,31.733
			c3.7,2.497,8.724,1.526,11.224-2.174c2.499-3.699,1.526-8.724-2.174-11.224C356.796,15.12,307.3,0,256,0
			C187.619,0,123.333,26.628,74.982,74.982C26.628,123.333,0,187.621,0,256c0,63.608,23.252,124.06,65.624,171.135l-8.306,3.253
			c-3.059,1.105-29.07,11.48-29.07,44.553v28.967c0,4.466,3.618,8.092,8.084,8.092h46.504h7.239h8.623h41.362h15.266
			c0.39,0,0.771-0.037,1.146-0.091c0.376,0.054,0.756,0.091,1.146,0.091h32.894c4.466,0,8.084-3.618,8.084-8.084
			c0-4.466-3.619-8.084-8.084-8.084h-24.81v-28.155c0-29.704,23.332-38.248,24.274-38.58c0.125-0.042,0.249-0.087,0.373-0.136
			l39.368-15.418c0.085,0.092,0.165,0.188,0.255,0.276l20.922,20.378c1.511,1.47,3.536,2.293,5.641,2.293
			c0.042,0,0.085,0,0.127-0.001c2.151-0.033,4.202-0.924,5.693-2.474l20.089-20.844l39.315,15.766
			c0.143,0.058,0.237,0.094,0.383,0.142c0.993,0.349,24.328,8.896,24.328,38.598v28.155H287.34h-62.511h-9.051
			c-4.466,0-8.084,3.619-8.084,8.084c0,4.466,3.619,8.084,8.084,8.084h9.051h62.511h67.215h0.001h0.001h10.314h7.238h8.625h41.36
			h53.745c4.466,0,8.084-3.676,8.084-8.141v-28.918C483.925,441.995,458.11,431.572,454.889,430.401z M430.428,420.592l-7.969-3.196
			v-4.6c8.807-5.165,15.576-13.438,18.792-23.306c11.761-0.929,21.051-10.776,21.051-22.771c0-7.134-3.288-13.51-8.423-17.708
			v-14.368c0-27.702-20.788-50.625-47.58-54.027c0.305-5.481,0.516-11.003,0.618-16.532h88.765
			C493.739,322.601,470.753,377.874,430.428,420.592z M401.242,402.393h-7.373c-14.285,0-25.906-11.621-25.906-25.904v-21.39h0
			c10.531-1.143,29.184-4.824,43.555-16.826c3.219,5.521,8.2,11.492,15.63,14.979v23.236
			C427.147,390.772,415.526,402.393,401.242,402.393z M406.292,418.247v4.482l-9.008,9.346l-8.464-8.243v-5.586
			c1.657,0.199,3.34,0.314,5.05,0.314h7.373C402.953,418.561,404.634,418.446,406.292,418.247z M359.905,339.456
			c-0.009,0-0.018,0-0.027,0c-0.278,0-0.554,0.015-0.825,0.042c-0.087,0.009-0.172,0.027-0.259,0.039
			c-0.182,0.024-0.364,0.046-0.542,0.083c-0.122,0.024-0.239,0.061-0.359,0.092c-0.139,0.035-0.279,0.065-0.414,0.107
			c-0.088,0.027-0.171,0.064-0.258,0.094v-5.269c0-21.126,17.187-38.312,38.313-38.312h3.866c21.125,0,38.309,17.186,38.309,38.312
			v5.203c-0.152-0.049-0.306-0.087-0.462-0.126c-0.074-0.021-0.148-0.045-0.223-0.064c-11.27-2.563-14.956-17.604-14.983-17.718
			c-0.701-3.098-3.152-5.498-6.265-6.134c-3.113-0.638-6.308,0.608-8.17,3.182C392.967,339.224,360.333,339.456,359.905,339.456z
			 M443.315,372.167v-10.894c1.702,1.215,2.818,3.202,2.818,5.448S445.017,370.952,443.315,372.167z M457.383,125.748
			c23.417,36.176,36.826,78.29,38.297,122.167h-88.767c-0.656-36.389-5.741-71.486-14.808-103.449
			C416.96,139.529,439.121,133.22,457.383,125.748z M390.743,247.917h-82.741c-0.009-0.001-0.017,0-0.025,0
			c-11.029-12.192-26.533-20.247-43.893-21.587v-69.52c39.671-0.395,77.954-3.694,112.062-9.427
			C385.071,178.295,390.08,212.429,390.743,247.917z M319.43,332.335c0,4.755-3.212,8.764-7.579,9.997v-19.997
			C316.218,323.57,319.43,327.58,319.43,332.335z M264.084,16.617c32.171,3.436,62.439,27.306,85.965,68.118
			c8.256,14.321,15.345,30.143,21.189,47.115c-32.594,5.337-69.173,8.409-107.155,8.79V16.617z M258.957,242.28
			c27.537,0,49.939,22.404,49.939,49.942v9.879c-0.054-0.043-0.111-0.081-0.166-0.124c-0.117-0.092-0.236-0.182-0.359-0.267
			c-0.095-0.066-0.193-0.127-0.291-0.189c-0.121-0.077-0.241-0.153-0.367-0.223c-0.115-0.065-0.234-0.122-0.352-0.181
			c-0.113-0.056-0.225-0.113-0.341-0.165c-0.142-0.063-0.289-0.115-0.434-0.17c-0.101-0.038-0.201-0.077-0.303-0.111
			c-0.163-0.054-0.331-0.097-0.498-0.14c-0.074-0.021-0.147-0.046-0.223-0.064c-15.357-3.492-20.222-23.515-20.263-23.689
			c-0.701-3.098-3.152-5.498-6.265-6.134c-3.112-0.64-6.308,0.608-8.17,3.182c-18.931,26.172-60.75,26.44-61.302,26.44
			c-0.001,0-0.002,0-0.002,0c-0.011,0-0.019,0-0.029,0c-0.278,0-0.554,0.014-0.825,0.041c-0.085,0.01-0.167,0.027-0.252,0.039
			c-0.183,0.025-0.369,0.047-0.549,0.083c-0.115,0.024-0.227,0.06-0.342,0.088c-0.144,0.036-0.291,0.068-0.431,0.111
			c-0.131,0.041-0.257,0.094-0.385,0.141c-0.117,0.043-0.239,0.081-0.355,0.129c-0.148,0.063-0.289,0.137-0.43,0.206
			c-0.092,0.045-0.185,0.084-0.275,0.133c-0.146,0.078-0.282,0.168-0.422,0.254c-0.08,0.051-0.164,0.096-0.244,0.149
			c-0.13,0.088-0.253,0.186-0.379,0.282c-0.081,0.061-0.165,0.117-0.244,0.182c-0.074,0.061-0.143,0.13-0.216,0.194v-10.077
			c0-27.538,22.402-49.941,49.939-49.941H258.957z M121.257,247.916c0.663-35.494,5.674-69.635,14.601-100.55
			c34.156,5.741,72.48,9.047,112.058,9.445v69.602c-16.947,1.587-32.054,9.589-42.859,21.557c-0.294-0.032-0.593-0.053-0.896-0.053
			H121.257z M201.447,322.252v20.166c-4.533-1.121-7.906-5.209-7.906-10.083C193.54,327.462,196.914,323.374,201.447,322.252z
			 M247.916,16.617v124.023c-37.892-0.384-74.5-3.468-107.146-8.815c5.843-16.962,12.929-32.774,21.181-47.09
			C185.477,43.923,215.745,20.053,247.916,16.617z M189.813,25.462c-15.418,12.66-29.567,29.853-41.871,51.198
			c-9.143,15.861-16.92,33.437-23.249,52.292c-22.901-4.469-43.408-10.12-60.488-16.782
			C95.167,70.985,139.067,40.054,189.813,25.462z M54.69,125.786c18.216,7.444,40.381,13.729,65.212,18.661
			c-9.073,31.967-14.158,67.072-14.816,103.469H16.32C17.815,203.01,31.71,161.193,54.69,125.786z M106.783,418.248
			c1.657,0.199,3.34,0.313,5.05,0.313h7.374c1.708,0,3.391-0.114,5.047-0.314v4.481l-9.006,9.346l-8.465-8.243V418.248z
			 M119.207,402.393h-7.374c-14.285,0-25.906-11.621-25.906-25.905v-21.38c10.529-1.139,29.175-4.826,43.555-16.835
			c3.22,5.522,8.2,11.494,15.629,14.981v23.235C145.11,390.772,133.49,402.393,119.207,402.393z M140.008,321.938
			c-0.701-3.098-3.152-5.498-6.265-6.134c-3.113-0.638-6.309,0.608-8.169,3.182c-14.65,20.249-47.31,20.471-47.704,20.471
			c-0.01,0-0.018,0-0.027,0c-0.278,0-0.554,0.014-0.825,0.041c-0.085,0.01-0.167,0.027-0.252,0.039
			c-0.183,0.024-0.369,0.047-0.549,0.083c-0.115,0.024-0.227,0.06-0.342,0.088c-0.144,0.036-0.29,0.068-0.431,0.111
			c-0.087,0.027-0.169,0.064-0.255,0.094v-5.269c0-21.126,17.186-38.313,38.312-38.313h3.867c21.125,0,38.309,17.187,38.309,38.313
			v5.204h-0.002c-0.155-0.051-0.316-0.089-0.474-0.13c-0.071-0.018-0.14-0.043-0.212-0.06
			C143.721,337.095,140.035,322.051,140.008,321.938z M16.319,264.084h88.765c0.101,5.568,0.316,11.129,0.623,16.645
			c-26.361,3.791-46.689,26.519-46.689,53.914v14.305c-5.185,4.196-8.51,10.6-8.51,17.771c0,12.084,9.433,21.983,21.32,22.785
			c3.216,9.862,9.982,18.128,18.786,23.292v4.553l-8.831,3.458C41.322,378.056,18.263,322.727,16.319,264.084z M69.757,361.093
			v11.252c-1.85-1.192-3.081-3.266-3.081-5.624C66.676,364.361,67.907,362.287,69.757,361.093z M149.532,467.678v28.154h-9.474
			H98.697h-8.623h-7.238H44.417v-20.891c0-22.539,17.62-29.071,18.305-29.314c0.125-0.042,0.25-0.087,0.373-0.136l30.491-11.941
			l16.202,15.78c1.51,1.471,3.534,2.293,5.64,2.293c0.042,0,0.085,0,0.128-0.001c2.151-0.033,4.201-0.924,5.692-2.474l15.304-15.882
			l18.917,7.585C151.882,448.192,149.532,457.083,149.532,467.678z M227.53,397.036l-42.908,16.803
			c-5.464,1.88-13.026,6.217-19.734,13.369l-24.467-9.812v-4.598c8.809-5.166,15.577-13.439,18.793-23.308
			c11.762-0.929,21.053-10.776,21.053-22.771c0-7.134-3.289-13.51-8.424-17.708v-14.368c0-28.519-22.03-51.974-49.963-54.279
			c-0.308-5.393-0.521-10.833-0.624-16.281h73.06c-4.036,8.543-6.304,18.078-6.304,28.137v18.864
			c-6.457,4.851-10.642,12.57-10.642,21.251c0,14.51,11.697,26.334,26.157,26.556c3.794,12.814,12.533,23.52,24.001,29.899V397.036z
			 M161.279,372.168V361.27c1.703,1.216,2.82,3.203,2.82,5.45S162.982,370.953,161.279,372.168z M269.601,402.678
			c0,0.011,0,0.022,0,0.03v0.49l-13.246,13.745l-12.657-12.328v-10.172c2.715,0.453,5.499,0.7,8.342,0.7h9.222
			c2.841,0,5.624-0.247,8.339-0.698V402.678z M261.262,378.976h-9.222c-18.982,0-34.425-15.442-34.425-34.424v-28.542
			c12.902-1.188,38.414-5.673,57.049-22.402c3.933,7.443,10.526,16.084,21.02,20.566v30.377
			C295.683,363.534,280.242,378.976,261.262,378.976z M347.334,427.263c-6.707-7.17-14.278-11.522-19.754-13.412l-41.812-16.769
			v-8.292c11.471-6.38,20.208-17.089,24.001-29.907c14.307-0.396,25.827-12.149,25.827-26.547c0-8.631-4.14-16.311-10.534-21.167
			v-18.948c0-10.058-2.267-19.594-6.304-28.137h71.983c-0.105,5.47-0.319,10.932-0.631,16.351
			c-27.506,2.729-49.06,25.998-49.06,54.208v14.307c-5.184,4.195-8.508,10.599-8.508,17.77c0,12.085,9.433,21.984,21.32,22.785
			c3.216,9.862,9.983,18.128,18.787,23.292v4.553L347.334,427.263z M351.795,361.093v11.252c-1.851-1.192-3.081-3.266-3.081-5.624
			C348.714,364.361,349.945,362.286,351.795,361.093z M467.757,495.832h-45.661h-41.36h-8.625h-7.238h-2.232v-28.155
			c0-10.552-2.329-19.413-5.893-26.736l18.876-7.392l16.2,15.78c1.51,1.471,3.534,2.294,5.641,2.294c0.042,0,0.085,0,0.127-0.001
			c2.151-0.033,4.201-0.924,5.693-2.474l15.305-15.882l30.426,12.2c0.142,0.058,0.221,0.088,0.368,0.138
			c0.75,0.266,18.374,6.799,18.374,29.338V495.832z"></path>
	</symbol>

	<symbol id="icon-time" viewBox="0 0 97.16 97.16">
		<path d="M48.58,0C21.793,0,0,21.793,0,48.58s21.793,48.58,48.58,48.58s48.58-21.793,48.58-48.58S75.367,0,48.58,0z M48.58,86.823
			c-21.087,0-38.244-17.155-38.244-38.243S27.493,10.337,48.58,10.337S86.824,27.492,86.824,48.58S69.667,86.823,48.58,86.823z"></path>
		<path d="M73.898,47.08H52.066V20.83c0-2.209-1.791-4-4-4c-2.209,0-4,1.791-4,4v30.25c0,2.209,1.791,4,4,4h25.832
			c2.209,0,4-1.791,4-4S76.107,47.08,73.898,47.08z"></path>
	</symbol>

	<symbol id="icon-constraction" viewBox="0 0 496 496">
		<path d="M374,250.136l26.728-26.736l-56.568-56.568l-26.736,26.728c-9.328-5.152-19.2-9.176-29.432-12.128v-37.088
			c25.84-13.904,40-36.736,40-64.776c0-33.784-21.432-64.064-53.328-75.36L264,0.432V65.8l-16,5.336L232,65.8V0.432l-10.672,3.776
			C189.432,15.504,168,45.784,168,79.568c0,28.04,14.16,50.872,40,64.776v37.088c-10.232,2.96-20.104,6.976-29.432,12.128
			l-26.736-26.728L95.264,223.4l26.728,26.736c-5.16,9.336-9.248,19.192-12.2,29.432H72v80h37.792
			c2.96,10.24,7.04,20.096,12.2,29.432l-26.728,26.736l56.568,56.568l26.736-26.728c9.336,5.16,19.192,9.248,29.432,12.2v37.792h80
			v-37.792c10.24-2.96,20.096-7.04,29.432-12.2l26.736,26.728l56.568-56.568L374.008,389c5.16-9.336,9.248-19.192,12.2-29.432H424
			v-80h-37.792C383.248,269.328,379.168,259.472,374,250.136z M184,79.568c0-23.048,12.488-44.064,32-55.352v53.12L248,88
			l32-10.664v-53.12c19.512,11.288,32,32.304,32,55.352c0,23.464-12.248,41.664-35.424,52.632L272,134.368v129.2h16V250.24
			c24.632,14.128,40,40.2,40,69.328c0,29.536-16.128,55.32-40,69.176V279.568h-16V395.88c-7.584,2.392-15.64,3.688-24,3.688
			s-16.416-1.296-24-3.688V134.368l-4.576-2.168C196.248,121.232,184,103.032,184,79.568z M408,343.568h-34.24l-1.48,6.12
			c-3.112,12.872-8.192,25.136-15.112,36.44l-3.288,5.376l24.232,24.224l-33.944,33.944l-24.224-24.232l-5.376,3.288
			c-11.312,6.92-23.568,12-36.44,15.112L272,445.328v34.24h-48v-34.24l-6.12-1.48c-12.872-3.112-25.136-8.192-36.44-15.112
			l-5.376-3.288L151.84,449.68l-33.944-33.944l24.232-24.224l-3.288-5.376c-6.92-11.312-12-23.568-15.112-36.44l-1.488-6.128H88
			v-48h34.24l1.48-6.12c3.112-12.872,8.192-25.136,15.112-36.44l3.288-5.376l-24.232-24.224l33.944-33.944l24.224,24.232
			l5.376-3.288c8.376-5.128,17.28-9.232,26.56-12.28v34.208c-34.184,15.624-56,49.256-56,87.24c0,52.936,43.064,96,96,96
			c52.936,0,96-43.064,96-96c0-37.992-21.816-71.624-56-87.24v-34.208c9.28,3.056,18.184,7.16,26.56,12.28l5.376,3.288
			l24.224-24.232l33.944,33.944l-24.232,24.224l3.288,5.376c6.92,11.312,12,23.568,15.112,36.44l1.496,6.12H408V343.568z
			 M208,250.248v138.496c-23.872-13.856-40-39.64-40-69.176C168,290.448,183.368,264.376,208,250.248z"></path>
		<path d="M32,393.04V103.568c0-4.408,3.592-8,8-8h65.472c3.312,9.288,12.112,16,22.528,16c13.232,0,24-10.768,24-24
			s-10.768-24-24-24c-10.416,0-19.216,6.712-22.528,16H40c-13.232,0-24,10.768-24,24V393.04c-9.288,3.312-16,12.112-16,22.528
			c0,13.232,10.768,24,24,24s24-10.768,24-24C48,405.152,41.288,396.352,32,393.04z M128,79.568c4.408,0,8,3.592,8,8s-3.592,8-8,8
			s-8-3.592-8-8S123.592,79.568,128,79.568z M24,423.568c-4.408,0-8-3.592-8-8c0-4.408,3.592-8,8-8s8,3.592,8,8
			C32,419.976,28.408,423.568,24,423.568z"></path>
		<rect x="48" y="111.568" width="16" height="16"></rect>
		<rect x="48" y="143.568" width="16" height="16"></rect>
		<rect x="48" y="175.568" width="16" height="16"></rect>
		<path d="M480,393.04V103.568c0-13.232-10.768-24-24-24h-65.472c-3.312-9.288-12.112-16-22.528-16c-13.232,0-24,10.768-24,24
			s10.768,24,24,24c10.416,0,19.216-6.712,22.528-16H456c4.408,0,8,3.592,8,8V393.04c-9.288,3.312-16,12.112-16,22.528
			c0,13.232,10.768,24,24,24s24-10.768,24-24C496,405.152,489.288,396.352,480,393.04z M368,95.568c-4.408,0-8-3.592-8-8
			s3.592-8,8-8c4.408,0,8,3.592,8,8S372.408,95.568,368,95.568z M472,423.568c-4.408,0-8-3.592-8-8c0-4.408,3.592-8,8-8
			c4.408,0,8,3.592,8,8C480,419.976,476.408,423.568,472,423.568z"></path>
		<rect x="432" y="111.568" width="16" height="16"></rect>
		<rect x="432" y="143.568" width="16" height="16"></rect>
		<rect x="432" y="175.568" width="16" height="16"></rect>
		<rect x="240" y="367.568" width="16" height="16"></rect>
		<rect x="240" y="335.568" width="16" height="16"></rect>
		<rect x="240" y="303.568" width="16" height="16"></rect>
	</symbol>

	<symbol id="icon-research" viewBox="0 0 496 496">
		<path d="M312,416c13.232,0,24-10.768,24-24s-10.768-24-24-24c-10.416,0-19.216,6.712-22.528,16H256v-48h33.472
			c3.312,9.288,12.112,16,22.528,16c13.232,0,24-10.768,24-24s-10.768-24-24-24c-10.416,0-19.216,6.712-22.528,16H256v-48h33.472
			c3.312,9.288,12.112,16,22.528,16c13.232,0,24-10.768,24-24s-10.768-24-24-24c-10.416,0-19.216,6.712-22.528,16H256v-16h-16
			v-33.472c9.288-3.312,16-12.112,16-22.528c0-13.232-10.768-24-24-24s-24,10.768-24,24c0,10.416,6.712,19.216,16,22.528V240h-48
			v-33.472c9.288-3.312,16-12.112,16-22.528c0-13.232-10.768-24-24-24s-24,10.768-24,24c0,10.416,6.712,19.216,16,22.528V240h-48
			v-33.472c9.288-3.312,16-12.112,16-22.528c0-13.232-10.768-24-24-24s-24,10.768-24,24c0,10.416,6.712,19.216,16,22.528V240H80v16
			H46.528c-3.312-9.288-12.112-16-22.528-16c-13.232,0-24,10.768-24,24s10.768,24,24,24c10.416,0,19.216-6.712,22.528-16H80v48
			H46.528c-3.312-9.288-12.112-16-22.528-16c-13.232,0-24,10.768-24,24s10.768,24,24,24c10.416,0,19.216-6.712,22.528-16H80v48
			H46.528c-3.312-9.288-12.112-16-22.528-16c-13.232,0-24,10.768-24,24s10.768,24,24,24c10.416,0,19.216-6.712,22.528-16H80v16h16
			v33.472c-9.288,3.312-16,12.112-16,22.528c0,13.232,10.768,24,24,24s24-10.768,24-24c0-10.416-6.712-19.216-16-22.528V416h48
			v33.472c-9.288,3.312-16,12.112-16,22.528c0,13.232,10.768,24,24,24s24-10.768,24-24c0-10.416-6.712-19.216-16-22.528V416h48
			v33.472c-9.288,3.312-16,12.112-16,22.528c0,13.232,10.768,24,24,24s24-10.768,24-24c0-10.416-6.712-19.216-16-22.528V416h16v-16
			h33.472C292.784,409.288,301.584,416,312,416z M312,384c4.416,0,8,3.584,8,8c0,4.416-3.584,8-8,8c-4.416,0-8-3.584-8-8
			C304,387.584,307.584,384,312,384z M312,320c4.416,0,8,3.584,8,8c0,4.416-3.584,8-8,8c-4.416,0-8-3.584-8-8
			C304,323.584,307.584,320,312,320z M312,256c4.416,0,8,3.584,8,8c0,4.416-3.584,8-8,8c-4.416,0-8-3.584-8-8
			C304,259.584,307.584,256,312,256z M24,272c-4.416,0-8-3.584-8-8c0-4.416,3.584-8,8-8s8,3.584,8,8C32,268.416,28.416,272,24,272z
			 M24,336c-4.416,0-8-3.584-8-8c0-4.416,3.584-8,8-8s8,3.584,8,8C32,332.416,28.416,336,24,336z M24,400c-4.416,0-8-3.584-8-8
			c0-4.416,3.584-8,8-8s8,3.584,8,8C32,396.416,28.416,400,24,400z M232,176c4.416,0,8,3.592,8,8s-3.584,8-8,8s-8-3.592-8-8
			S227.584,176,232,176z M168,176c4.416,0,8,3.592,8,8s-3.584,8-8,8s-8-3.592-8-8S163.584,176,168,176z M104,176
			c4.416,0,8,3.592,8,8s-3.584,8-8,8s-8-3.592-8-8S99.584,176,104,176z M104,480c-4.416,0-8-3.584-8-8c0-4.416,3.584-8,8-8
			s8,3.584,8,8C112,476.416,108.416,480,104,480z M168,480c-4.416,0-8-3.584-8-8c0-4.416,3.584-8,8-8s8,3.584,8,8
			C176,476.416,172.416,480,168,480z M232,480c-4.416,0-8-3.584-8-8c0-4.416,3.584-8,8-8s8,3.584,8,8
			C240,476.416,236.416,480,232,480z M240,400H96V256h144V400z"></path>
		<path d="M459.96,127.992V128c-2.984-11.568-7.576-22.624-13.712-32.992l25.512-25.52L426.504,24.24l-25.52,25.52
			C390.616,43.616,379.568,39.024,368,36.04V0h-64v36.04c-11.568,2.984-22.616,7.576-32.984,13.712l-25.52-25.52L200.24,69.48
			L225.752,95c-6.136,10.368-10.728,21.424-13.712,32.992H184v16h40.944l1.304-6.408c2.84-14.008,8.336-27.232,16.336-39.32
			l3.608-5.448L222.856,69.48l22.632-22.624l23.336,23.336l5.448-3.608c12.08-8,25.304-13.496,39.32-16.336L320,48.952V16h32
			v32.952l6.408,1.304c14.016,2.84,27.24,8.336,39.32,16.336l5.448,3.608l23.336-23.336l22.632,22.624l-23.336,23.336l3.608,5.448
			c8,12.088,13.496,25.312,16.336,39.32l1.304,6.408H480v32h-32.944l-1.304,6.408c-2.84,14.008-8.336,27.232-16.336,39.312
			l-3.608,5.456l23.336,23.336l-22.632,22.632l-23.336-23.336l-5.448,3.608c-12.088,8-25.312,13.504-39.32,16.336L352,271.056V312
			h16v-28.04c11.56-2.976,22.616-7.568,32.984-13.712l25.52,25.512l45.256-45.256l-25.512-25.52
			c6.136-10.368,10.728-21.424,13.712-32.992H496v-64H459.96z"></path>
		<path d="M336,224v16c44.112,0,80-35.888,80-80s-35.888-80-80-80s-80,35.888-80,80h16c0-35.288,28.712-64,64-64
			c35.288,0,64,28.712,64,64C400,195.288,371.288,224,336,224z"></path>
		<rect x="112" y="272" width="112" height="16"></rect>
		<rect x="208" y="368" width="16" height="16"></rect>
		<rect x="112" y="368" width="80" height="16"></rect>
		<path d="M294.408,475.344l3.184,15.688c97.68-19.832,173.608-95.76,193.44-193.44l-15.688-3.184
			C456.808,385.784,385.784,456.808,294.408,475.344z"></path>
		<path d="M201.592,20.648l-3.184-15.68C100.728,24.8,24.8,100.728,4.968,198.408l15.688,3.176
			C39.192,110.224,110.216,39.192,201.592,20.648z"></path>
	</symbol>

	<symbol id="icon-exp" viewBox="0 0 512 512">
		<path d="M342.602,115.914L251.24,6.28C247.812,2.096,243.144,0,237.254,0c-5.899,0-10.564,2.093-13.99,6.28l-91.363,109.634
			c-4.947,5.905-5.802,12.371-2.568,19.414c3.427,7.044,8.951,10.566,16.562,10.566h54.821v182.723h-91.363
			c-3.046,0-5.426,1.048-7.139,3.142l-45.683,54.816c-2.284,2.854-2.663,6.19-1.143,9.996c1.525,3.433,4.283,5.14,8.282,5.14h200.995
			c2.67,0,4.853-0.852,6.567-2.562c1.711-1.715,2.566-3.901,2.566-6.571V145.897h54.819c7.615,0,13.131-3.521,16.563-10.566
			C348.604,128.481,347.745,122.009,342.602,115.914z"></path>
	</symbol>
</svg>