<?xml version="1.0" encoding="utf-8"?>
<!-- Generator: Adobe Illustrator 16.0.4, SVG Export Plug-In . SVG Version: 6.00 Build 0)  -->
<!DOCTYPE svg PUBLIC "-//W3C//DTD SVG 1.1//EN" "http://www.w3.org/Graphics/SVG/1.1/DTD/svg11.dtd">
<svg version="1.1" id="Layer_1" xmlns="http://www.w3.org/2000/svg" xmlns:xlink="http://www.w3.org/1999/xlink" x="0px" y="0px"
	 width="17.001px" height="16.001px" viewBox="0 0 17.001 16.001" enable-background="new 0 0 17.001 16.001" xml:space="preserve">
<g>
	<path fill="#FFFFFF" d="M9.018,0.024C8.923,0.015,8.829,0,8.732,0C8.705,0,8.677,0.006,8.649,0.007C8.599,0.006,8.551,0,8.5,0
		C3.813,0,0,3.589,0,8c0,4.412,3.813,8.001,8.5,8.001c0.051,0,0.099-0.006,0.149-0.007c0.027,0.001,0.056,0.007,0.083,0.007
		c0.097,0,0.19-0.015,0.285-0.024c4.446-0.254,7.983-3.729,7.983-7.977C17.001,3.753,13.464,0.278,9.018,0.024z M5.956,1.426
		c-0.86,0.936-1.559,2.281-1.943,3.866C2.819,5.17,2.099,5.028,1.808,4.962C2.647,3.334,4.133,2.054,5.956,1.426z M1.059,8
		c0-0.734,0.125-1.44,0.349-2.105c0.207,0.053,0.983,0.232,2.415,0.382C3.739,6.832,3.688,7.405,3.688,8
		c0,0.756,0.077,1.479,0.208,2.167c-1.216,0.124-1.971,0.271-2.317,0.349C1.254,9.733,1.059,8.891,1.059,8z M2.043,11.439
		c0.39-0.077,1.078-0.192,2.087-0.291c0.402,1.393,1.047,2.578,1.826,3.426C4.288,14.001,2.911,12.873,2.043,11.439z M7.996,14.918
		c-1-0.359-2.252-1.85-2.802-3.854c0.79-0.055,1.802-0.093,2.802-0.104V14.918z M7.996,9.963c-1,0.011-2.203,0.054-3.048,0.116
		C4.832,9.418,4.758,8.72,4.758,8c0-0.56,0.058-1.105,0.129-1.631c0.858,0.063,2.109,0.109,3.109,0.12V9.963z M7.996,5.493
		c-1-0.011-2.103-0.053-2.916-0.112c0.509-2.227,1.916-3.916,2.916-4.301V5.493z M8.996,1.074c1,0.356,2.41,2.051,2.909,4.306
		c-0.8,0.061-1.909,0.103-2.909,0.114V1.074z M8.996,6.489c1-0.011,2.243-0.058,3.089-0.124c0.07,0.527,0.116,1.073,0.116,1.634
		c0,0.721-0.069,1.421-0.183,2.082c-0.833-0.063-2.022-0.108-3.022-0.119V6.489z M8.996,14.932V10.96c1,0.01,2.02,0.05,2.799,0.106
		C11.254,13.097,9.996,14.599,8.996,14.932z M11.449,14.429c0.635-0.831,1.134-1.957,1.448-3.266
		c1.039,0.111,1.697,0.242,2.034,0.321C14.134,12.782,12.922,13.828,11.449,14.429z M15.943,8c0,0.911-0.203,1.773-0.541,2.572
		c-0.301-0.082-1.033-0.252-2.311-0.393C13.2,9.488,13.264,8.761,13.264,8c0-0.599-0.041-1.177-0.108-1.734
		c1.613-0.182,2.337-0.409,2.406-0.432C15.799,6.518,15.943,7.242,15.943,8z M12.999,5.281c-0.301-1.501-0.844-2.784-1.55-3.708
		c1.62,0.661,2.939,1.851,3.721,3.335C15.006,4.955,14.332,5.132,12.999,5.281z"/>
</g>
</svg>
